<svg xmlns="http://www.w3.org/2000/svg" xmlns:xlink="http://www.w3.org/1999/xlink" id="Layer_1" x="0px" y="0px" viewBox="0 0 698 347" style="enable-background:new 0 0 698 347;" xml:space="preserve">
<style type="text/css">
	.st60{clip-path:url(#SVGID_2_);}
	.st61{clip-path:url(#SVGID_2_);fill:#00AAA5;}
	.st62{clip-path:url(#SVGID_2_);fill:#A6BE4B;}
	.st63{clip-path:url(#SVGID_2_);fill:#C81F66;}
	.st64{clip-path:url(#SVGID_2_);fill:#F37021;}
	.st65{clip-path:url(#SVGID_2_);fill:#426AB3;}
</style>
<g>
	<defs>
		<rect id="SVGID_1_" x="-71" y="-74.3" width="841.9" height="492.3"/>
	</defs>
	<clipPath id="SVGID_2_">
		<use xlink:href="#SVGID_1_" style="overflow:visible;"/>
	</clipPath>
	<path class="st60" d="M59.3,294.6H9V166.8h50.2c41.9,0,67.9,26.4,67.9,63.9C127.1,268.1,101.2,294.6,59.3,294.6 M34.8,189.4   L34.8,189.4V272h22.8c24.7,0,43-14.5,43-41.3c0-26.8-18.3-41.3-43-41.3H34.8z"/>
	<path class="st60" d="M191.7,167.3h4.5l65.5,127.2h-29l-8.3-17.4h-60.8l-8,17.4h-29L191.7,167.3z M194.7,213.8L194.7,213.8H193   l-19.3,41.6l-1.5,2.8h43.2l-1.5-2.8L194.7,213.8z"/>
	<path class="st60" d="M278.5,166.8h57.6c32.3,0,52.3,16,52.3,43.9c0,18.9-9.4,31.9-24,38.9v1.9l30.4,40.5v2.5h-29.1l-28.3-39h-33.2   v39h-25.7V166.8z M335.3,189.4L335.3,189.4h-31.1v44.5h31.7c16.2,0,26-7.3,26-22.2C361.9,197,351.9,189.4,335.3,189.4"/>
	<path class="st60" d="M474.4,166.8h4.5l65.8,127.8h-29.1l-8.3-17.5h-61.1l-8.1,17.5h-29.2L474.4,166.8z M477.4,213.4L477.4,213.4   h-1.7l-19.4,41.7l-1.5,2.8h43.4l-1.5-2.8L477.4,213.4z"/>
	<path class="st60" d="M13.1,341.9c-2,0-3.9-0.3-5.3-0.7l0.4-3.1c1.5,0.6,3.4,1,5.1,1c2.9,0,5.5-1.2,5.5-4.4   c0-5.6-11.2-3.4-11.2-11.2c0-4,3.1-6.9,8.5-6.9c1.4,0,3.1,0.2,4.4,0.5l-0.4,2.8c-1.3-0.4-2.8-0.7-4.2-0.7c-3.4,0-5.1,1.6-5.1,3.9   c0,5.4,11.3,3.5,11.3,11.2C22.2,338.7,18.6,341.9,13.1,341.9"/>
	<path class="st60" d="M36.2,341.6c0-1.3,0-2.6,0.1-3.7h-0.1c-0.8,2.3-3.1,4-6.2,4c-3,0-5-1.8-5-4.8c0-3.8,4-6.3,10.9-6.3v-1.2   c0-2.6-1-4-4-4c-1.7,0-3.9,0.6-5.3,1.4l-0.6-2.6c1.8-0.7,4.1-1.3,6.3-1.3c5.2,0,6.7,2.4,6.7,6v10c0.8,0.1,2.1,0.3,3.2,0.4v1.8   C40.5,341.5,38,341.6,36.2,341.6 M36,333L36,333c-6.1,0-7.9,1.7-7.9,3.6c0,1.6,1.1,2.8,2.8,2.8c3,0,5.1-3,5.1-5.9V333z"/>
	<path class="st60" d="M57.8,341.6c0-1.1,0.1-2.7,0.3-3.9h0c-1,2.5-3.3,4.2-6.4,4.2c-4.2,0-5.5-2.6-5.5-5.8v-10.2   c-0.9-0.1-2.1-0.3-3.2-0.4v-1.8c1.8-0.2,4.3-0.3,6.3-0.3v11.7c0,2.6,0.7,4.2,3.2,4.2c3.1,0,5.3-3.1,5.3-7.2v-8.7h3.1v15.7   c0.8,0.2,2.1,0.3,3.2,0.4v1.8C62.2,341.5,59.8,341.6,57.8,341.6 M53,320.7L53,320.7l-1.3-1.7l4.9-4.5l1.7,2L53,320.7z"/>
	<path class="st60" d="M78,341.6c0-1.1,0.1-2.7,0.3-3.8l-0.1,0c-1,2.5-3.2,4.1-6.1,4.1c-4.4,0-6.7-3.3-6.7-8.5   c0-6.4,3.6-10.2,9.4-10.2c1,0,2,0.1,3.1,0.2v-6c-0.9-0.1-2.1-0.3-3.2-0.4v-1.8c1.8-0.2,4.2-0.3,6.3-0.3v24.2   c0.9,0.1,2.1,0.3,3.2,0.4v1.8C82.4,341.5,80,341.6,78,341.6 M77.9,326.1L77.9,326.1c-1.1-0.3-2.3-0.4-3.4-0.4   c-3.5,0-5.9,2.1-5.9,7.4c0,4,1.3,6.3,4.1,6.3c3.4,0,5.1-4,5.1-7.2V326.1z"/>
	<path class="st60" d="M100.8,332.5H88.9c-0.2,4.7,1.8,6.9,5.8,6.9c1.8,0,3.6-0.4,5.2-1.1l0.5,2.5c-1.8,0.7-4,1.1-6.2,1.1   c-5.4,0-8.4-2.9-8.4-9.3c0-5.4,3-9.5,8.1-9.5c5.1,0,7.2,3.4,7.2,7.4C100.9,330.9,100.8,331.8,100.8,332.5L100.8,332.5z M93.5,325.5   L93.5,325.5c-2.4,0-4.2,1.8-4.6,4.8h8.7C97.7,327.3,96.2,325.5,93.5,325.5"/>
	<path class="st60" d="M126,332.5h-11.9c-0.1,4.7,1.8,6.9,5.8,6.9c1.8,0,3.6-0.4,5.2-1.1l0.5,2.5c-1.8,0.7-4,1.1-6.2,1.1   c-5.4,0-8.4-2.9-8.4-9.3c0-5.4,3-9.5,8.1-9.5c5.1,0,7.2,3.4,7.2,7.4C126.1,330.9,126.1,331.8,126,332.5L126,332.5z M118.8,325.5   L118.8,325.5c-2.4,0-4.2,1.8-4.6,4.8h8.7C123,327.3,121.4,325.5,118.8,325.5"/>
	<path class="st60" d="M143.8,341.7c-2.5,0-4.4-0.1-6.1-0.1v-24.6c1.9,0,4.6-0.1,7.3-0.1c7.9,0,12.6,3.7,12.6,12.1   C157.6,337.4,151.9,341.7,143.8,341.7 M144.7,319.4L144.7,319.4c-1.3,0-2.8,0.1-3.8,0.1v19.3c1,0.1,2.3,0.2,3.4,0.2   c5.9,0,10-3,10-9.8C154.3,322.8,151.1,319.4,144.7,319.4"/>
	<path class="st60" d="M175.3,332.5h-11.9c-0.1,4.7,1.8,6.9,5.8,6.9c1.8,0,3.6-0.4,5.2-1.1l0.5,2.5c-1.8,0.7-4,1.1-6.2,1.1   c-5.4,0-8.4-2.9-8.4-9.3c0-5.4,3-9.5,8.1-9.5c5.1,0,7.2,3.4,7.2,7.4C175.4,330.9,175.3,331.8,175.3,332.5L175.3,332.5z M168,325.5   L168,325.5c-2.4,0-4.2,1.8-4.6,4.8h8.7C172.2,327.3,170.6,325.5,168,325.5"/>
	<path class="st60" d="M182.4,341.9c-1.4,0-2.9-0.1-4-0.5l0.3-2.8c1.1,0.4,2.7,0.7,4.1,0.7c2.4,0,4-1.1,4-2.8c0-4.2-8.6-1.6-8.6-8   c0-3.1,2.4-5.4,7.2-5.4c1.1,0,2.5,0.1,3.5,0.4l-0.3,2.5c-1.1-0.4-2.4-0.5-3.5-0.5c-2.5,0-3.7,1-3.7,2.7c0,4.2,8.6,1.8,8.6,8   C190,339.4,187.1,341.9,182.4,341.9"/>
	<path class="st60" d="M207.8,332.5h-11.9c-0.1,4.7,1.8,6.9,5.8,6.9c1.8,0,3.6-0.4,5.2-1.1l0.5,2.5c-1.8,0.7-4,1.1-6.2,1.1   c-5.5,0-8.4-2.9-8.4-9.3c0-5.4,3-9.5,8.1-9.5c5,0,7.1,3.4,7.1,7.4C207.9,330.9,207.9,331.8,207.8,332.5L207.8,332.5z M200.6,325.5   L200.6,325.5c-2.4,0-4.2,1.8-4.6,4.8h8.7C204.8,327.3,203.2,325.5,200.6,325.5"/>
	<path class="st60" d="M224.5,341.6v-11.7c0-2.6-0.7-4.2-3.2-4.2c-3.1,0-5.3,3.1-5.3,7.2v8.7H213v-15.7c-0.9-0.2-2.1-0.3-3.2-0.4   v-1.8c1.7-0.2,4.2-0.3,6.2-0.3c0,1.1-0.1,2.8-0.3,3.9h0.1c1.1-2.5,3.3-4.2,6.4-4.2c4.1,0,5.4,2.6,5.4,5.8v12.7H224.5z"/>
	<path class="st60" d="M240.2,341.6h-3.6l-6.6-18.1h3.4l4,11.4c0.4,1.3,0.8,2.4,1.1,3.6h0c0.3-1.1,0.6-2.3,1-3.5l4.1-11.4h3.3   L240.2,341.6z"/>
	<path class="st60" d="M255.3,341.9c-4.9,0-8.1-2.9-8.1-9.3c0-5.2,3.3-9.5,8.8-9.5c4.5,0,8.1,2.5,8.1,9.1   C264.1,337.6,260.6,341.9,255.3,341.9 M255.7,325.7L255.7,325.7c-2.7,0-5.2,2-5.2,6.7c0,4.5,1.8,6.9,5.2,6.9c2.8,0,5.2-2.2,5.2-6.9   C260.8,328.2,259.1,325.7,255.7,325.7"/>
	<path class="st60" d="M268.3,341.6v-24.2c-0.9-0.1-2.1-0.3-3.2-0.4v-1.8c1.8-0.2,4.2-0.4,6.3-0.3v26.6H268.3z"/>
	<path class="st60" d="M284.3,341.6h-3.6l-6.6-18.1h3.4l4,11.4c0.4,1.3,0.8,2.4,1,3.6h0c0.3-1.1,0.6-2.3,1-3.5l4.1-11.4h3.3   L284.3,341.6z"/>
	<path class="st60" d="M294.8,341.6v-15.7c-0.9-0.1-2.1-0.3-3.2-0.4v-1.8c1.7-0.2,4.2-0.3,6.3-0.3v18.1H294.8z M296.3,319.7   L296.3,319.7c-1.1,0-2.1-0.9-2.1-2c0-1.1,0.9-2.1,2.1-2.1c1.1,0,2.1,0.9,2.1,2.1C298.4,318.8,297.5,319.7,296.3,319.7"/>
	<path class="st60" d="M327,341.6v-11.6c0-2.6-0.6-4.2-3.1-4.2c-2.7,0-5.2,2.8-5.2,7.3v8.6h-3.1v-11.7c0-2.3-0.5-4.2-3.1-4.2   c-2.8,0-5.2,3-5.2,7.3v8.6h-3.1v-15.7c-0.8-0.1-2.1-0.3-3.1-0.4v-1.8c1.7-0.2,4.2-0.3,6.2-0.3c0,1.1,0,2.8-0.3,3.9l0.1,0   c1-2.6,3.4-4.3,6.3-4.3c3.9,0,4.9,2.7,5,4.2c0.7-1.7,2.7-4.2,6.2-4.2c3.4,0,5.4,1.8,5.4,5.9v12.6H327z"/>
	<path class="st60" d="M349.2,332.5h-11.9c-0.1,4.7,1.8,6.9,5.8,6.9c1.8,0,3.6-0.4,5.2-1.1l0.5,2.5c-1.8,0.7-4,1.1-6.2,1.1   c-5.4,0-8.4-2.9-8.4-9.3c0-5.4,3-9.5,8.1-9.5c5.1,0,7.2,3.4,7.2,7.4C349.4,330.9,349.3,331.8,349.2,332.5L349.2,332.5z M342,325.5   L342,325.5c-2.4,0-4.2,1.8-4.6,4.8h8.7C346.2,327.3,344.7,325.5,342,325.5"/>
	<path class="st60" d="M366,341.6v-11.7c0-2.6-0.7-4.2-3.2-4.2c-3.1,0-5.3,3.1-5.3,7.2v8.7h-3.1v-15.7c-0.9-0.2-2.1-0.3-3.2-0.4v-1.8   c1.8-0.2,4.2-0.3,6.2-0.3c0,1.1-0.1,2.8-0.3,3.9h0.1c1-2.5,3.2-4.2,6.4-4.2c4.2,0,5.5,2.6,5.5,5.8v12.7H366z"/>
	<path class="st60" d="M379.8,341.9c-3.7,0-4.8-1.6-4.8-5.4v-10.6h-3.8v-2.4h3.8v-5.9l3.1-0.8v6.8h5.1v2.4h-5.1v9.5   c0,3.1,0.6,3.9,2.6,3.9c0.8,0,1.7-0.2,2.4-0.3l0.3,2.6C382.4,341.7,381,341.9,379.8,341.9"/>
	<path class="st60" d="M393.5,341.9c-4.9,0-8.1-2.9-8.1-9.3c0-5.2,3.3-9.5,8.8-9.5c4.5,0,8.1,2.5,8.1,9.1   C402.2,337.6,398.8,341.9,393.5,341.9 M393.9,325.7L393.9,325.7c-2.7,0-5.3,2-5.3,6.7c0,4.5,1.9,6.9,5.2,6.9c2.8,0,5.2-2.2,5.2-6.9   C399,328.2,397.3,325.7,393.9,325.7"/>
	<polygon class="st60" points="429.6,316.9 429.6,327.5 416.8,327.5 416.8,316.9 413.6,316.9 413.6,341.6 416.8,341.6 416.8,330.2    429.6,330.2 429.6,341.6 432.8,341.6 432.8,316.9  "/>
	<path class="st60" d="M450.8,341.6c0-1.1,0.1-2.7,0.3-3.9H451c-1,2.5-3.3,4.2-6.4,4.2c-4.1,0-5.4-2.6-5.4-5.8v-10.2   c-0.9-0.2-2.1-0.3-3.2-0.4v-1.8c1.8-0.2,4.3-0.3,6.3-0.3v11.7c0,2.6,0.7,4.2,3.2,4.2c3.1,0,5.3-3.1,5.3-7.2v-8.7h3.1v15.7   c0.9,0.2,2.1,0.3,3.2,0.4v1.8C455.3,341.5,452.8,341.6,450.8,341.6"/>
	<path class="st60" d="M483.7,341.6v-11.6c0-2.6-0.6-4.2-3.1-4.2c-2.7,0-5.2,2.8-5.2,7.3v8.6h-3.1v-11.7c0-2.3-0.4-4.2-3.1-4.2   c-2.8,0-5.2,3-5.2,7.3v8.6H461v-15.7c-0.9-0.1-2.1-0.3-3.2-0.4v-1.8c1.8-0.2,4.3-0.3,6.2-0.3c0,1.1-0.1,2.8-0.3,3.9l0.1,0   c1.1-2.6,3.4-4.3,6.3-4.3c3.9,0,4.9,2.7,5,4.2c0.7-1.7,2.7-4.2,6.2-4.2c3.4,0,5.4,1.8,5.4,5.9v12.6H483.7z"/>
	<path class="st60" d="M502.1,341.6c0-1.3,0-2.6,0.2-3.7h-0.1c-0.9,2.3-3.2,4-6.2,4c-3,0-5-1.8-5-4.8c0-3.8,4-6.3,10.9-6.3v-1.2   c0-2.6-1-4-4-4c-1.7,0-3.9,0.6-5.3,1.4l-0.6-2.6c1.8-0.7,4.1-1.3,6.3-1.3c5.2,0,6.7,2.4,6.7,6v10c0.9,0.1,2.1,0.3,3.2,0.4v1.8   C506.4,341.5,503.9,341.6,502.1,341.6 M501.9,333L501.9,333c-6.1,0-7.9,1.7-7.9,3.6c0,1.6,1.1,2.8,2.8,2.8c3,0,5-3,5-5.9V333z"/>
	<path class="st60" d="M523.8,341.6v-11.7c0-2.6-0.7-4.2-3.2-4.2c-3.1,0-5.3,3.1-5.3,7.2v8.7h-3.1v-15.7c-0.9-0.2-2.1-0.3-3.2-0.4   v-1.8c1.7-0.2,4.2-0.3,6.2-0.3c0,1.1-0.1,2.8-0.3,3.9h0.1c1-2.5,3.3-4.2,6.4-4.2c4.1,0,5.4,2.6,5.4,5.8v12.7H523.8z"/>
	<path class="st60" d="M538.8,341.9c-4.9,0-8.1-2.9-8.1-9.3c0-5.2,3.3-9.5,8.8-9.5c4.5,0,8.1,2.5,8.1,9.1   C547.6,337.6,544.2,341.9,538.8,341.9 M539.2,325.7L539.2,325.7c-2.7,0-5.2,2-5.2,6.7c0,4.5,1.8,6.9,5.2,6.9c2.8,0,5.2-2.2,5.2-6.9   C544.4,328.2,542.7,325.7,539.2,325.7"/>
	<rect x="9" y="112" class="st60" width="4.9" height="38.1"/>
	<path class="st60" d="M64.1,150.1L49,125.3c-1.6-2.7-2.9-5.1-4-7.6c0.2,4.1,0.4,15.1,0.4,21.7v10.7h-4.8V112h6.6L62,136.5   c1.5,2.5,3,5.1,4.3,7.8c-0.2-4.9-0.4-15.6-0.4-22.4V112h4.8v38.1H64.1z"/>
	<path class="st60" d="M102.8,150.6c-3.1,0-6-0.4-8.3-1.1l0.6-4.7c2.4,1,5.2,1.5,7.9,1.5c4.5,0,8.4-1.9,8.4-6.7   c0-8.7-17.3-5.3-17.3-17.4c0-6.2,4.7-10.7,13.2-10.7c2.2,0,4.8,0.3,6.8,0.7l-0.6,4.3c-2-0.6-4.3-1-6.5-1c-5.3,0-7.9,2.4-7.9,6.1   c0,8.4,17.6,5.4,17.6,17.3C116.8,145.8,111.3,150.6,102.8,150.6"/>
	<polygon class="st60" points="150.5,116.2 150.5,150.1 145.6,150.1 145.6,116.2 134.5,116.2 134.5,112 161.6,112 161.6,116.2  "/>
	<rect x="183.2" y="112" class="st60" width="4.9" height="38.1"/>
	<polygon class="st60" points="225.7,116.2 225.7,150.1 220.8,150.1 220.8,116.2 209.7,116.2 209.7,112 236.8,112 236.8,116.2  "/>
	<path class="st60" d="M271.8,150.6c-11.9,0-14.2-6.6-14.2-13.3V112h4.9v25c0,5.3,1.8,9.7,9.6,9.7c6.7,0,9.9-2.8,9.9-10.6v-24h4.9   v23.6C286.9,145.5,281.6,150.6,271.8,150.6"/>
	<polygon class="st60" points="323.5,116.2 323.5,150.1 318.6,150.1 318.6,116.2 307.5,116.2 307.5,112 334.6,112 334.6,116.2  "/>
	<path class="st60" d="M368.2,150.6c-11.4,0-16.9-7.6-16.9-19.1c0-12.8,8.1-20,18-20c11.4,0,16.9,7.5,16.9,19   C386.2,143.4,378.1,150.6,368.2,150.6 M368.8,115.8L368.8,115.8c-6.7,0-12.2,5.4-12.2,14.9c0,9.3,4,15.6,12.2,15.6   c6.7,0,12.2-5.4,12.2-14.9C381,122.2,377,115.8,368.8,115.8"/>
	<path class="st61" d="M582.7,108.7c-12.9,0-23.4,10.5-23.4,23.4s10.5,23.4,23.4,23.4h86.4c12.9,0,23.4-10.5,23.4-23.4   s-10.5-23.4-23.4-23.4H582.7z"/>
	<path class="st62" d="M448.9,113.1c-10.5,0-19,8.5-19,19c0,10.5,8.5,19,19,19H470c10.5,0,19-8.5,19-19c0-10.5-8.5-19-19-19H448.9z"/>
	<path class="st63" d="M533.7,71.5c-6,10.5-2.4,23.8,8,29.9c10.4,6,23.8,2.5,29.8-8l32.5-56.3c6-10.5,2.4-23.8-8-29.8   c-10.4-6-23.8-2.5-29.8,8L533.7,71.5z"/>
	<path class="st64" d="M492.2,35.9c-5.6-9.8-18.1-13.1-27.9-7.5c-9.8,5.6-13.1,18.1-7.5,27.9l21.8,37.7c5.6,9.8,18.1,13.1,27.9,7.5   c9.8-5.6,13.1-18.1,7.5-27.9L492.2,35.9z"/>
	<path class="st65" d="M575.6,171.6c-6.9-11.9-22.1-16-34-9.1c-11.9,6.9-16,22.1-9.1,34l53.7,93.2c6.9,11.9,22.1,16,34,9.1   c11.9-6.9,16-22.1,9.1-34L575.6,171.6z"/>
</g>
</svg>